<?xml version="1.0" encoding="utf-8"?>

<svg version="1.1" id="Layer_2" xmlns="http://www.w3.org/2000/svg" xmlns:xlink="http://www.w3.org/1999/xlink" x="0px" y="0px" width="1280px" height="720px" viewBox="0 0 1280 720" style="enable-background:new 0 0 1280 720;" xml:space="preserve">


<g>
&#x9;<g>
&#x9;&#x9;<path class="st0" d="M369.63,231.82c0,0,55.99,163.36,86.73,216.05v65.08c0,0-12.34-0.42-13.21-3.61&#xA;&#x9;&#x9;&#x9;c-34.34-125.28-122.37-265.16-122.37-265.16L369.63,231.82z"></path>
&#x9;&#x9;<path class="st0" d="M592.53,244.12c0,0-88.04,139.87-122.37,265.16c-0.87,3.19-13.21,3.61-13.21,3.61v-65.08&#xA;&#x9;&#x9;&#x9;c30.74-52.69,86.73-216.05,86.73-216.05L592.53,244.12z"></path>
&#x9;</g>
</g>
<g>
&#x9;<g>
&#x9;&#x9;<path class="st0" d="M369.63,231.82c0,0,55.99,163.36,86.73,216.05v65.08c0,0-12.34-0.42-13.21-3.61&#xA;&#x9;&#x9;&#x9;c-34.34-125.28-122.37-265.16-122.37-265.16L369.63,231.82z"></path>
&#x9;&#x9;<path class="st0" d="M592.53,244.12c0,0-88.04,139.87-122.37,265.16c-0.87,3.19-13.21,3.61-13.21,3.61v-65.08&#xA;&#x9;&#x9;&#x9;c30.74-52.69,86.73-216.05,86.73-216.05L592.53,244.12z"></path>
&#x9;</g>
</g>
<g>
&#x9;<g>
&#x9;&#x9;<path class="st0" d="M369.63,231.82c0,0,55.99,163.36,86.73,216.05v65.08c0,0-12.34-0.42-13.21-3.61&#xA;&#x9;&#x9;&#x9;c-34.34-125.28-122.37-265.16-122.37-265.16L369.63,231.82z"></path>
&#x9;&#x9;<path class="st0" d="M592.53,244.12c0,0-88.04,139.87-122.37,265.16c-0.87,3.19-13.21,3.61-13.21,3.61v-65.08&#xA;&#x9;&#x9;&#x9;c30.74-52.69,86.73-216.05,86.73-216.05L592.53,244.12z"></path>
&#x9;</g>
</g>
<path class="st0" d="M732.01,231.91c-73.74,0-133.5,63.76-133.5,142.43c0,78.65,59.76,142.42,133.5,142.42&#xA;&#x9;c73.73,0,133.5-63.76,133.5-142.42C865.51,295.67,805.73,231.91,732.01,231.91z M731.99,494.24c-47.03,0-85.14-59.01-85.14-119.91&#xA;&#x9;c0-60.91,38.11-119.91,85.14-119.91c47.03,0,85.14,59,85.14,119.91C817.13,435.23,779.02,494.24,731.99,494.24z"></path>
<g>
&#x9;<path class="st0" d="M958.89,508.34v1.8h-51.21v-1.8c1.99,0,8.92-60.64,8.92-135.45c0-67.28-6.62-123.1-8.33-133.66h50.03&#xA;&#x9;&#x9;c-1.71,10.55-11.38,66.2-11.38,133.48C946.92,447.52,956.9,508.34,958.89,508.34z"></path>
&#x9;<circle class="st0" cx="933.29" cy="175.65" r="25.61"></circle>
</g>
<path class="st0" d="M1067.46,311.26c-12.37,17.62-19.69,39.45-19.69,63.08c0,18.75,4.6,36.36,12.7,51.64&#xA;&#x9;c17.1,32.35,49.79,54.22,87.31,54.22c2.1,0,4.17-0.07,6.23-0.2c27.83-1.81,69.65-23.45,69.65-23.45v32.75&#xA;&#x9;c-8.28,6.08-17.24,11.28-26.75,15.46c-17.56,7.75-36.98,12.05-57.4,12.05c-73.44,0-133.9-55.57-141.62-126.95&#xA;&#x9;c-0.55-5.1-0.84-10.28-0.84-15.52c0-8.02,0.66-15.89,1.95-23.56c11.22-67.47,69.86-118.91,140.51-118.91&#xA;&#x9;c17.55,0,34.36,3.18,49.88,8.99c12.33,4.6,23.83,10.87,34.27,18.52v33.71c0,0-45.53-24.61-75.88-24.61c-2.23,0-4.43,0.07-6.63,0.24&#xA;&#x9;C1110.96,270.79,1084.44,287.05,1067.46,311.26z"></path>
<text transform="matrix(1 0 0 1 1224.33 193.0831)" class="st0 st1 st2">R</text>
<circle class="st3" cx="1240.41" cy="176.9" r="26.11"></circle>
<path class="st0" d="M13.48,412.22v-78.49c0-11.6,9.4-21,21-21h11.01c11.6,0,21,9.4,21,21v78.49c0,11.6-9.4,21-21,21H34.48&#xA;&#x9;C22.88,433.22,13.48,423.82,13.48,412.22z"></path>
<path class="st0" d="M93,470.52v-195.1c0-11.6,9.4-21,21-21h11.01c11.6,0,21,9.4,21,21v195.1c0,11.6-9.4,21-21,21H114&#xA;&#x9;C102.4,491.52,93,482.12,93,470.52z"></path>
<path class="st0" d="M170.11,521.94V224.01c0-11.6,9.4-21,21-21h11.01c11.6,0,21,9.4,21,21v297.93c0,11.6-9.4,21-21,21h-11.01&#xA;&#x9;C179.51,542.94,170.11,533.54,170.11,521.94z"></path>
<path class="st0" d="M249.63,412.22v-78.49c0-11.6,9.4-21,21-21h11.01c11.6,0,21,9.4,21,21v78.49c0,11.6-9.4,21-21,21h-11.01&#xA;&#x9;C259.03,433.22,249.63,423.82,249.63,412.22z"></path>
</svg>